<?xml version="1.0" encoding="UTF-8" standalone="no"?>
<!-- Created with Inkscape (http://www.inkscape.org/) -->
<svg id="svg2" xmlns:rdf="http://www.w3.org/1999/02/22-rdf-syntax-ns#" xmlns="http://www.w3.org/2000/svg" xml:space="preserve" height="100%" width="100%" viewBox="0 0 69.347 53.656" version="1.1" xmlns:cc="http://creativecommons.org/ns#" xmlns:dc="http://purl.org/dc/elements/1.1/"><metadata id="metadata8"><rdf:RDF><cc:Work rdf:about=""><dc:format>image/svg+xml</dc:format><dc:type rdf:resource="http://purl.org/dc/dcmitype/StillImage" /><dc:title /></cc:Work></rdf:RDF></metadata>
<defs id="defs6">
<clipPath id="clipPath16"><path id="path18" d="m0 42.925h55.478v-42.925h-55.478v42.925z" /></clipPath>
<style type="text/css">
        .line{
            stroke:#2b2b2a;
            stroke-miterlimit:10;
            stroke-width:.75px;
            fill:none;
            transition: stroke .3s ease;
        }
        .line.alt{
            stroke:#fff;
        }
    </style>
</defs>
<g id="g10" transform="matrix(1.25 0 0 -1.25 0 53.656)">
<g id="g12"><g id="g14" clip-path="url(#clipPath16)">
<g id="g20" transform="translate(5.5591 11.98)">
<path id="path22" d="m0 0c-2.492 1.043-4.404 2.502-4.404 2.502" class="line" />
</g>
<g id="g24" transform="translate(40.573 13.914)">
<path id="path26" d="m0 0c-1.187-1.55-9.182-4.789-16.875-5.488-6.553-0.597-13.457 1.666-17.066 3.077" class="line" />
    </g>
<g id="g28" transform="translate(41.502 14.638)">
<path id="path30" d="m0 0c0.035-0.546-0.09-1.48-0.645-1.896-1.701-1.274-10.679-4.382-17.621-4.867-6.939-0.482-13.531 2.068-13.531 2.068-1.125 0.409-2.439 0.94-3.349 1.337m-1.069 0.448c-2.478 1.189-3.916 2.276-4.199 2.843-0.42 0.845-0.063 1.198 0.617 2.179 0.393 0.568 2.061 2.381 3.324 3.673m-0.568 0.672s-3.844-4.07-4.057-5.343c-0.211-1.273 0.643-2.504 4.625-4.249m1.069-0.482c2.58-1.11 3.041-1.201 3.041-1.201s7.34-2.787 14.381-2.207c6.552 0.541 13.462 2.648 17.656 4.824 0.896 0.465 1.088 1.781 0.947 2.511" class="line" />
    </g>
<g id="g32" transform="translate(44.059 16.728)">
<path id="path34" d="m0 0s5.439-4.711 7.006-6.458c1.564-1.749 0.906-2.758 0.068-3.428-1.39-1.112-10.293-4.699-19.49-5.491s-18.053 2.421-21.658 3.778c-2.975 1.118-5.112 2.483-5.112 2.483" class="line" />
    </g>
<g id="g36" transform="translate(52.166 6.1025)">
<path id="path38" d="m0 0c-2.037-1.389-12.779-4.797-21.074-5.35-8.297-0.554-16.162 2.181-16.162 2.181-6.26 2.05-9.555 3.814-10.057 4.73-0.498 0.917-0.291 1.552 0.525 2.619 0.885 1.156 6.198 5.944 6.198 5.944s6.873-6.282 17.078-5.825c10.334 0.464 15.767 6.658 15.767 6.658s5.33-4.315 6.893-6.266c0.658-0.824 2.869-3.302 0.832-4.691zm-42.531-1.611c4.414-1.743 4.617-1.692 4.617-1.692s8.758-2.99 17.174-2.33c7.834 0.613 16.099 2.927 21.121 5.304 2.859 1.354-0.266 4.466-0.936 5.323-1.59 2.03-7.15 6.731-7.15 6.731" class="line" />
    </g>
<g id="g40" transform="translate(11.418 16.989)">
<path id="path42" d="m0 0s-3.416-3.165-5.445-5.102c-0.217-0.209-0.418-0.402-0.598-0.575-0.312-0.303-0.559-0.548-0.707-0.705-1.281-1.344-0.633-2.567-0.518-2.944 0 0 1.034-1.498 5.485-3.172" class="line" />
    </g>
<g id="g44" transform="translate(4.1821,7.6475)">
<path id="path46" d="m0 0c-1.309 1.602 0.162 3.063 0.162 3.063l6.356 6.605" class="line" />
    </g>
<g id="g48" transform="translate(54.332 38.224)">
<path id="path50" d="m0 0-1.184 0.082" class="line" />
    </g>
<g id="g52" transform="translate(2.7798 24.617)">
<path id="path54" d="m0 0s-0.58-0.336-0.406-0.796c0 0 3.939-5.088 4.531-5.529" class="line" />
    </g>
<g id="g56" transform="translate(44.983 24.793)">
<path id="path58" d="m0 0s-3.838 1.487-7.133 2.562c-3.295 1.076-5.086 2.05-5.859 1.859-1.037-0.26-2.215-1.399-2.94-2.466-0.724-1.067-0.849-2.083-0.744-2.681" class="line" />
    </g>
<g id="g60" transform="translate(45.051 25.124)">
<path id="path62" d="m0 0c-0.768 0.106-10.654 3.307-11.494 3.876-0.844 0.568-1.051 1.735-0.752 3.169s0.723 2.518 2.033 3.277c0.391 0.227 1.131 0.27 1.74 0.236" class="line" />
    </g>
<g id="g64" transform="translate(52.452 41.096)">
<path id="path66" d="m0 0s-3.227 0.538-7.014 0.939c-3.388 0.357-6.593 0.812-7.636 0.252-1.047-0.56-2.268-2.194-2.426-3.731-0.141-1.352 0.064-2.402 1.73-3.104 1.668-0.701 10.559-1.913 11.162-1.944" class="line" />
    </g>
<g id="g68" transform="translate(48.446 33.511)">
<path id="path70" d="m0 0s-2.172 0.301-1.459 3.089 3.51 4.674 5.074 4.515c1.565-0.159 1.68-1.685 1.217-2.496-0.461-0.81-1.812-3.324-2.246-4.078-0.436-0.756-1.004-1.651-2.586-1.03z" class="line" />
    </g>
<g id="g72" transform="translate(39.315 17.904)">
<path id="path74" d="m0 0s0.326-0.645 2.037 0.324c1.713 0.969 5.102 3.888 4.375 5.691-0.726 1.803-3.318 0.994-5.111-0.717-1.793-1.709-2.744-3.484-2.178-4.512 0.176-0.322 0.877-0.786 0.877-0.786z" class="line" />
    </g>
<g id="g76" transform="translate(44.911 25.201)">
<path id="path78" d="m0 0s0.98-0.565 2.248 0.605c1.266 1.171 2.316 4.41 2.363 5.314s-0.209 1.852-1.236 2.276c-0.809 0.334-3.398-0.487-4.312-3.721-0.915-3.234-0.043-3.802 0.937-4.474z" class="line" />
</g>
<g id="g80" transform="translate(7.0493 18.202)">
<path id="path82" d="m0 0c0.637-0.381 2.02-0.103 2.916-0.418 1.201-0.421 1.883-1.174 2.625-1.798 0.74-0.626 6.334-4.235 12.887-5.147 7.898-1.098 15.205 3.457 16.773 4.856 0.994 0.892 2.643 2.306 4.25 4.592 0.922 1.312 2.188 3.676 3.123 5.484 1.711 3.308 5.112 10.547 5.313 10.993 0.201 0.444 0.269 1.069-0.08 1.243-0.35 0.173-0.797 0.468-1.112-0.292-0.25-0.609-5.465-11.871-7.851-15.425 0 0-1.977-3.755-5.405-6.194-3.429-2.439-8.878-4.208-15.865-3.324-4.906 0.619-9.306 3.629-11.484 5.166-2.182 1.538-4.029 1.81-5.057 1.739-0.695-0.047-1.234-0.434-1.312-0.737-0.135-0.535 0.279-0.738 0.279-0.738z" class="line" />
    </g>
<g id="g84" transform="translate(21.665 21.896)">
<path id="path86" d="m0 0s0.502 1.169 2.547 2.013c2.047 0.845 3.201 0.642 4.283 0.248 1.08-0.398 9.633-4.495 10.084-5.573" class="line" />
    </g>
<g id="g88" transform="translate(31.166 13.733)">
<path id="path90" d="m0 0c0.705-0.574 1.549-0.515 2.551-0.201 1.732 0.541 4.381 1.918 4.916 2.924 0.535 1.004 0.418 1.902-0.895 2.617-1.312 0.715-3.601-0.166-4.806-0.787-1.207-0.621-2.137-1.341-2.444-2.61-0.281-1.17 0.242-1.589 0.678-1.943z" class="line" />
    </g>
<g id="g92" transform="translate(30.239 15.092)">
<path id="path94" d="m0 0s0.082 1.397-2.264 2.702c-2.347 1.303-4.5 2.559-5.291 3.186-0.789 0.625-1.773 2.036-3.666 2.182-1.89 0.146-2.394 0.034-2.658-0.196" class="line" />
    </g>
<g id="g96" transform="translate(18.151 21.57)">
<path id="path98" d="m0 0s-4.08 3-5.678 4.019c-0.857 0.546-1.769 0.592-2.224 0.535" class="line" />
    </g>
<g id="g100" transform="translate(8.1567 19.845)">
<path id="path102" d="m0 0c-0.877 0.049-1.186 0.255-1.93 1.074-0.742 0.819-4.338 4.754-4.338 4.754s-0.625 1.315 0.463 2.176c1.088 0.862 3.737 0.937 4.823 0.406 1.572-0.77 6.701-4.729 7.093-5.699" class="line" />
    </g>
<g id="g104" transform="translate(22.02,15.54)">
<path id="path106" d="m0 0s-0.182 1.907 3.055 2.307c3.238 0.398 5.343-1.764 5.326-3.405-0.02-1.641-1.346-2.019-3.84-1.816-2.496 0.205-4.301 0.217-4.541 2.914z" class="line" />
    </g>
<g id="g108" transform="translate(15.36 20.915)">
<path id="path110" d="m0 0s1.334 1.582 2.93 0.605c1.595-0.976 5.652-4.078 3.006-6.308-1.432-1.203-2.555-0.427-3.561 0.137-1.008 0.561-4.008 1.772-2.912 4.589 0.248 0.638 0.537 0.977 0.537 0.977z" class="line" />
    </g>
<g id="g112" transform="translate(7.3599 19.951)">
<path id="path114" d="m0 0s-2.094 1.095-0.932 2.916c1.159 1.821 3.411 1.553 5.131 0.882 1.723-0.672 2.465-0.706 3.186-1.791 0.64-0.961 0.187-2.017-0.389-2.64-0.578-0.625-1.748-0.751-3.578-0.084-1.658 0.605-3.418 0.717-3.418 0.717z" class="line" />
    </g>
</g></g></g>
</svg>
