<?xml version="1.0" encoding="UTF-8" standalone="no"?>
<!-- Created with Inkscape (http://www.inkscape.org/) -->
<svg id="svg2" xmlns:rdf="http://www.w3.org/1999/02/22-rdf-syntax-ns#" xmlns="http://www.w3.org/2000/svg" xml:space="preserve" height="56.089" width="160" version="1.1" xmlns:cc="http://creativecommons.org/ns#" xmlns:dc="http://purl.org/dc/elements/1.1/"><metadata id="metadata8"><rdf:RDF><cc:Work rdf:about=""><dc:format>image/svg+xml</dc:format><dc:type rdf:resource="http://purl.org/dc/dcmitype/StillImage"/><dc:title/></cc:Work></rdf:RDF></metadata><defs id="defs6"><clipPath id="clipPath16"><path id="path18" d="m0 111.98h319.44v-111.98h-319.44v111.98z"/></clipPath></defs><g id="g10" transform="matrix(1.25 0 0 -1.25 0 56.089)"><g id="g12" transform="scale(.40070)"><g id="g14" clip-path="url(#clipPath16)"><g id="g20" transform="translate(18.504 76.128)"><path id="path22" d="m0 0c-3.531 0-6.725 0.776-9.49 2.31-2.762 1.531-4.979 3.743-6.586 6.576-1.611 2.834-2.428 5.935-2.428 9.218 0 4.496 1.506 8.461 4.479 11.787 3.525 3.958 8.181 5.964 13.838 5.964 2.96 0 5.771-0.555 8.349-1.651 2.113-0.898 4.213-2.45 6.248-4.615l-4.295-4.247c-2.933 3.022-6.386 4.554-10.269 4.554-3.455 0-6.393-1.163-8.727-3.457-2.338-2.294-3.523-5.123-3.523-8.406 0-3.392 1.228-6.307 3.652-8.666 2.422-2.354 5.451-3.549 9.002-3.549 2.309 0 4.289 0.494 5.883 1.471 1.597 0.978 2.9 2.524 3.873 4.596l0.16 0.346h-10.158v5.702h16.928l0.039-1.224c0-2.962-0.78-5.817-2.319-8.48-1.541-2.662-3.558-4.721-6.002-6.121-2.447-1.399-5.357-2.108-8.654-2.108" fill="#fff"/></g><g id="g24" transform="translate(47.611 97.589)"><path id="path26" d="m0 0h2.307c2.168 0 3.629 0.284 4.466 0.869 0.854 0.595 1.288 1.583 1.288 2.936 0 0.803-0.213 1.513-0.631 2.109-0.416 0.599-0.983 1.034-1.684 1.294-0.691 0.256-1.9 0.38-3.695 0.38h-2.051v-7.588zm8.773-20.59-7.779 14.653h-0.994v-14.653h-6.1v34.112h6.735c3.773 0 6.488-0.336 8.072-1.001 1.566-0.661 2.844-1.772 3.797-3.304 0.961-1.539 1.445-3.387 1.445-5.493 0-2.21-0.533-4.081-1.588-5.566-1.056-1.478-2.675-2.616-4.812-3.379l-0.266-0.094 8.141-15.275h-6.651z" fill="#fff"/></g><path id="path28" d="m69.484 111.11h6.051v-34.112h-6.051v34.112z" fill="#fff"/><g id="g30" transform="translate(100.38 76.128)"><path id="path32" d="m0 0c-3.533 0-6.727 0.776-9.49 2.31-2.762 1.531-4.979 3.743-6.588 6.576-1.609 2.834-2.426 5.934-2.426 9.218 0 4.496 1.506 8.462 4.479 11.787 3.525 3.958 8.181 5.964 13.838 5.964 2.958 0 5.769-0.555 8.347-1.651 2.113-0.898 4.215-2.451 6.25-4.615l-4.295-4.247c-2.933 3.022-6.386 4.554-10.269 4.554-3.455 0-6.391-1.163-8.727-3.457-2.338-2.294-3.523-5.123-3.523-8.406 0-3.391 1.228-6.307 3.654-8.666 2.42-2.354 5.447-3.549 8.998-3.549 2.311 0 4.291 0.494 5.883 1.471 1.596 0.976 2.898 2.522 3.875 4.596l0.162 0.346h-10.16v5.702h16.926l0.043-1.224c0-2.96-0.782-5.815-2.323-8.48-1.537-2.662-3.556-4.721-6.002-6.121-2.445-1.399-5.355-2.108-8.652-2.108" fill="#fff"/></g><g id="g34" transform="translate(140.86 106.02)"><path id="path36" d="m0 0c-3.254 0-6.029-1.148-8.252-3.413-2.217-2.265-3.342-5.179-3.342-8.662 0-3.885 1.418-7.003 4.211-9.267 2.168-1.768 4.692-2.666 7.5-2.666 3.176 0 5.922 1.164 8.156 3.461 2.233 2.294 3.366 5.161 3.366 8.521 0 3.34-1.141 6.211-3.389 8.53-2.252 2.319-5.027 3.496-8.25 3.496m0.117-29.896c-5.099 0-9.396 1.787-12.769 5.311-3.377 3.527-5.088 7.775-5.088 12.628 0 3.251 0.797 6.28 2.369 9.005s3.764 4.917 6.514 6.51 5.753 2.401 8.927 2.401c4.807 0 8.996-1.764 12.455-5.245 3.459-3.479 5.213-7.782 5.213-12.789 0-4.958-1.73-9.214-5.142-12.648-3.414-3.433-7.612-5.173-12.479-5.173" fill="#fff"/></g><g id="g38" transform="translate(171.84 97.589)"><path id="path40" d="m0 0h2.305c2.168 0 3.629 0.284 4.465 0.869 0.855 0.597 1.289 1.584 1.289 2.936 0 0.803-0.213 1.513-0.629 2.109-0.418 0.599-0.987 1.034-1.686 1.294-0.691 0.256-1.9 0.38-3.697 0.38h-2.047v-7.588zm8.771-20.59-7.779 14.653h-0.992v-14.653h-6.1v34.112h6.735c3.773 0 6.488-0.336 8.068-1.001 1.567-0.66 2.846-1.772 3.801-3.304 0.959-1.536 1.443-3.384 1.443-5.493 0-2.212-0.535-4.083-1.59-5.564-1.054-1.48-2.673-2.618-4.81-3.381l-0.264-0.094 8.137-15.275h-6.649z" fill="#fff"/></g><g id="g42" transform="translate(193.01 111.35)"><path id="path44" d="m0 0h18.889v-6.443h-12.348v-6.258h12.348v-6.326h-12.348v-9.104h12.348v-6.468h-18.889v34.599z" fill="#fff"/></g><g id="g46" transform="translate(193.26 76.999)"><path id="path48" d="m0 0v34.112h18.404v-5.957h-12.349v-6.742h12.349v-5.842h-12.349v-9.589h12.349v-5.982h-18.404z" fill="#fff"/></g><g id="g50" transform="translate(241.46 76.999)"><path id="path52" d="m0 0-15.16 23.273v-23.273h-6.1v34.112h5.944l15.177-23.343v23.343h6.1v-34.112h-5.961z" fill="#fff"/></g><g id="g54" transform="translate(274.95 76.999)"><path id="path56" d="m0 0-11.033 15.905v-15.905h-6.172v34.112h6.172v-12.384l9.752 12.384h7.293l-11.887-15.188 13.096-18.924h-7.221z" fill="#fff"/></g><g id="g58" transform="translate(301.7 106.02)"><path id="path60" d="m0 0c-3.256 0-6.031-1.148-8.25-3.413-2.219-2.264-3.342-5.179-3.342-8.662 0-3.886 1.416-7.003 4.211-9.267 2.166-1.768 4.69-2.666 7.5-2.666 3.176 0 5.92 1.164 8.152 3.461 2.235 2.293 3.37 5.161 3.37 8.521 0 3.34-1.143 6.211-3.391 8.53-2.252 2.319-5.027 3.496-8.25 3.496m0.119-29.896c-5.101 0-9.398 1.787-12.771 5.311-3.375 3.527-5.088 7.775-5.088 12.628 0 3.251 0.797 6.28 2.369 9.005s3.764 4.916 6.514 6.51c2.748 1.593 5.753 2.401 8.927 2.401 4.805 0 8.996-1.764 12.455-5.245 3.459-3.479 5.213-7.782 5.213-12.789 0-4.958-1.728-9.214-5.14-12.648-3.414-3.433-7.612-5.173-12.479-5.173" fill="#fff"/></g><g id="g62" transform="translate(8.7402 31.597)"><path id="path64" d="m0 0h3.408c3.787 0 6.461 0.242 7.949 0.721 2.104 0.682 3.78 1.932 4.987 3.712 1.199 1.774 1.808 3.97 1.808 6.525 0 2.679-0.658 5.003-1.959 6.906-1.304 1.912-3.146 3.24-5.472 3.948-1.733 0.525-4.604 0.792-8.543 0.792h-2.178v-22.604zm-2.139-2.101v26.899h5.434c4.049 0 7.023-0.327 8.836-0.974 2.594-0.908 4.648-2.503 6.107-4.742 1.461-2.247 2.201-4.965 2.201-8.077 0-2.688-0.585-5.084-1.744-7.122-1.156-2.033-2.677-3.555-4.519-4.522-1.848-0.97-4.487-1.462-7.846-1.462h-8.469z" fill="#fff"/></g><g id="g66" transform="translate(69.398 29.496)"><path id="path68" d="m0 0v26.898h15.207v-2.194h-12.957v-9.067h12.846v-2.197h-12.846v-11.246h12.846v-2.194h-15.096z" fill="#fff"/></g><g id="g70" transform="translate(132.06 28.808)"><path id="path72" d="m0 0c-1.607 0-3.084 0.434-4.391 1.291-1.267 0.832-2.461 2.232-3.548 4.168l1.91 1.146c1.65-2.939 3.59-4.429 5.769-4.429 0.955 0 1.865 0.225 2.701 0.671 0.844 0.447 1.495 1.057 1.938 1.813 0.443 0.753 0.668 1.566 0.668 2.413 0 0.966-0.328 1.922-0.975 2.839-0.865 1.229-2.461 2.725-4.744 4.446-2.254 1.704-3.672 2.946-4.213 3.693-0.933 1.244-1.406 2.603-1.406 4.046 0 1.144 0.277 2.199 0.822 3.134 0.547 0.939 1.326 1.687 2.319 2.227 0.994 0.543 2.091 0.818 3.261 0.818 1.243 0 2.42-0.312 3.502-0.927 1.045-0.595 2.172-1.694 3.346-3.267l-1.848-1.404c-0.994 1.295-1.832 2.135-2.556 2.568-0.762 0.456-1.602 0.687-2.498 0.687-1.164 0-2.133-0.362-2.877-1.074-0.748-0.713-1.127-1.606-1.127-2.651 0-0.627 0.133-1.243 0.392-1.829 0.262-0.586 0.735-1.225 1.41-1.899 0.375-0.361 1.54-1.262 3.565-2.759 2.336-1.725 3.957-3.277 4.818-4.61 0.852-1.318 1.283-2.658 1.283-3.982 0-1.91-0.738-3.591-2.189-5.001-1.453-1.412-3.248-2.128-5.332-2.128" fill="#fff"/></g><path id="path74" d="m184.9 56.395h2.25v-26.898h-2.25v26.898z" fill="#fff"/><g id="g76" transform="translate(242.86 28.808)"><path id="path78" d="m0 0c-4.967 0-8.951 1.712-11.844 5.09-2.22 2.597-3.345 5.644-3.345 9.056 0 2.541 0.644 4.936 1.919 7.12 1.274 2.185 3.047 3.918 5.27 5.151s4.777 1.859 7.59 1.859c2.279 0 4.453-0.417 6.459-1.239 1.945-0.795 3.873-2.075 5.732-3.805l-1.765-1.674c-1.496 1.435-3.151 2.546-4.924 3.303-1.84 0.785-3.66 1.182-5.408 1.182-2.178 0-4.282-0.542-6.252-1.61-1.971-1.072-3.52-2.545-4.608-4.381-1.084-1.836-1.633-3.804-1.633-5.849 0-2.096 0.569-4.114 1.69-5.998 1.123-1.884 2.695-3.387 4.674-4.463 1.972-1.075 4.166-1.621 6.519-1.621 2.86 0 5.317 0.819 7.303 2.437 1.988 1.622 3.182 3.754 3.549 6.334l0.039 0.277h-8.768v2.157h11.313c-0.071-4.032-1.313-7.282-3.696-9.665-2.429-2.43-5.732-3.661-9.814-3.661" fill="#fff"/></g><g id="g80" transform="translate(312.58 29.496)"><path id="path82" d="m0 0-18.432 21.141v-21.141h-2.341v26.898h0.24l18.58-21.398v21.398h2.213v-26.898h-0.26z" fill="#fff"/></g><path id="path84" d="m6.309 11.186h1.053v-8.189h-1.053v8.189zm0.523 3.372c0.24 0 0.443-0.085 0.613-0.256 0.17-0.17 0.256-0.376 0.256-0.617 0-0.236-0.086-0.439-0.256-0.61s-0.373-0.256-0.613-0.256c-0.234 0-0.437 0.085-0.607 0.256s-0.256 0.374-0.256 0.61c0 0.241 0.086 0.447 0.256 0.617 0.17 0.171 0.373 0.256 0.607 0.256" fill="#fff"/><g id="g86" transform="translate(19.801 11.186)"><path id="path88" d="m0 0h1.053v-1.468c0.422 0.563 0.888 0.983 1.4 1.261 0.512 0.279 1.068 0.418 1.672 0.418 0.611 0 1.154-0.155 1.629-0.467 0.475-0.31 0.824-0.729 1.051-1.257 0.224-0.527 0.338-1.347 0.338-2.462v-4.214h-1.055v3.906c0 0.943-0.039 1.573-0.117 1.889-0.121 0.542-0.356 0.951-0.701 1.224-0.348 0.274-0.799 0.41-1.356 0.41-0.637 0-1.209-0.211-1.713-0.633-0.504-0.42-0.838-0.943-0.998-1.565-0.099-0.406-0.15-1.149-0.15-2.229v-3.002h-1.053v8.189z" fill="#fff"/></g><g id="g90" transform="translate(40.367 14.227)"><path id="path92" d="m0 0h1.053v-3.041h1.672v-0.91h-1.672v-7.279h-1.053v7.279h-1.437v0.91h1.437v3.041z" fill="#fff"/></g><g id="g94" transform="translate(61.814 7.9189)"><path id="path96" d="m0 0c-0.141 0.562-0.346 1.011-0.613 1.348-0.27 0.336-0.625 0.606-1.067 0.812-0.443 0.206-0.908 0.309-1.394 0.309-0.805 0-1.496-0.258-2.072-0.776-0.424-0.376-0.743-0.94-0.958-1.693h6.104zm0-2.205 0.889-0.467c-0.291-0.572-0.629-1.034-1.01-1.386-0.383-0.35-0.811-0.618-1.289-0.8-0.477-0.184-1.018-0.276-1.619-0.276-1.336 0-2.381 0.438-3.135 1.314s-1.129 1.865-1.129 2.969c0 1.039 0.318 1.965 0.955 2.778 0.809 1.034 1.893 1.551 3.248 1.551 1.397 0 2.512-0.53 3.346-1.588 0.592-0.748 0.892-1.682 0.904-2.801h-7.369c0.02-0.951 0.322-1.731 0.91-2.339s1.315-0.912 2.18-0.912c0.416 0 0.822 0.072 1.217 0.217 0.394 0.145 0.728 0.338 1.006 0.577 0.275 0.24 0.574 0.628 0.896 1.163" fill="#fff"/></g><g id="g98" transform="translate(74.787 11.186)"><path id="path100" d="m0 0h1.076v-1.196c0.32 0.471 0.66 0.824 1.016 1.057 0.357 0.234 0.728 0.35 1.115 0.35 0.291 0 0.602-0.093 0.934-0.278l-0.551-0.889c-0.221 0.096-0.406 0.144-0.557 0.144-0.351 0-0.689-0.145-1.015-0.433-0.327-0.289-0.577-0.737-0.747-1.344-0.13-0.467-0.195-1.41-0.195-2.83v-2.77h-1.076v8.189z" fill="#fff"/></g><path id="path102" d="m89.912 11.186h1.053v-8.189h-1.053v8.189zm0.524 3.372c0.238 0 0.443-0.085 0.613-0.256 0.17-0.17 0.256-0.376 0.256-0.617 0-0.236-0.086-0.439-0.256-0.61s-0.375-0.256-0.613-0.256c-0.237 0-0.438 0.085-0.608 0.256s-0.256 0.374-0.256 0.61c0 0.241 0.086 0.447 0.256 0.617 0.17 0.171 0.371 0.256 0.608 0.256" fill="#fff"/><g id="g104" transform="translate(107.28 10.365)"><path id="path106" d="m0 0c-0.875 0-1.629-0.323-2.258-0.971-0.631-0.647-0.945-1.43-0.945-2.348 0-0.593 0.144-1.145 0.432-1.657 0.287-0.511 0.673-0.907 1.162-1.185 0.49-0.278 1.025-0.418 1.609-0.418s1.121 0.14 1.609 0.418c0.489 0.278 0.877 0.674 1.164 1.185 0.288 0.512 0.43 1.064 0.43 1.657 0 0.918-0.316 1.701-0.947 2.348-0.633 0.648-1.385 0.971-2.256 0.971m0.004 1.031c1.262 0 2.309-0.457 3.137-1.37 0.754-0.833 1.13-1.819 1.13-2.958 0-1.144-0.398-2.144-1.195-3-0.797-0.855-1.82-1.283-3.072-1.283-1.256 0-2.283 0.428-3.08 1.283-0.797 0.856-1.195 1.856-1.195 3 0 1.134 0.376 2.117 1.13 2.951 0.83 0.918 1.879 1.377 3.145 1.377" fill="#fff"/></g><g id="g108" transform="translate(123.35 11.186)"><path id="path110" d="m0 0h1.076v-1.196c0.32 0.471 0.66 0.824 1.016 1.057 0.357 0.234 0.728 0.35 1.115 0.35 0.291 0 0.602-0.093 0.934-0.278l-0.551-0.889c-0.221 0.096-0.406 0.144-0.557 0.144-0.351 0-0.689-0.145-1.015-0.433-0.327-0.289-0.577-0.737-0.747-1.344-0.13-0.467-0.195-1.41-0.195-2.83v-2.77h-1.076v8.189z" fill="#fff"/></g><g id="g112" transform="translate(166.39 11.186)"><path id="path114" d="m0 0h1.084l2.51-5.946 2.613 5.946h0.191l2.631-5.946 2.559 5.946h1.096l-3.559-8.189h-0.195l-2.618 5.864-2.619-5.864h-0.195l-3.498 8.189z" fill="#fff"/></g><g id="g116" transform="translate(192.24 10.365)"><path id="path118" d="m0 0c-0.875 0-1.629-0.323-2.258-0.971-0.629-0.647-0.945-1.43-0.945-2.348 0-0.593 0.144-1.145 0.432-1.657 0.287-0.511 0.673-0.907 1.164-1.185 0.488-0.278 1.023-0.418 1.607-0.418s1.121 0.14 1.609 0.418c0.489 0.278 0.877 0.674 1.164 1.185 0.288 0.512 0.43 1.064 0.43 1.657 0 0.918-0.316 1.701-0.947 2.348-0.633 0.648-1.385 0.971-2.256 0.971m0.004 1.031c1.262 0 2.309-0.457 3.137-1.37 0.754-0.833 1.13-1.819 1.13-2.958 0-1.144-0.398-2.144-1.193-3-0.797-0.855-1.822-1.283-3.074-1.283-1.256 0-2.283 0.428-3.08 1.283-0.797 0.856-1.195 1.856-1.195 3 0 1.134 0.376 2.117 1.13 2.951 0.83 0.918 1.879 1.377 3.145 1.377" fill="#fff"/></g><g id="g120" transform="translate(209.67 11.186)"><path id="path122" d="m0 0h1.076v-1.196c0.322 0.471 0.66 0.824 1.018 1.057 0.355 0.234 0.726 0.35 1.113 0.35 0.291 0 0.602-0.093 0.934-0.278l-0.549-0.889c-0.223 0.096-0.408 0.144-0.559 0.144-0.351 0-0.689-0.145-1.015-0.433-0.327-0.289-0.575-0.737-0.745-1.344-0.13-0.467-0.197-1.41-0.197-2.83v-2.77h-1.076v8.189z" fill="#fff"/></g><g id="g124" transform="translate(227.92 14.348)"><path id="path126" d="m0 0h1.055v-6.467l3.797 3.305h1.546l-4.502-3.906 4.766-4.284h-1.484l-4.123 3.688v-3.688h-1.055v11.352z" fill="#fff"/></g><g id="g128" transform="translate(253.2 10.29)"><path id="path130" d="m0 0-0.678-0.7c-0.564 0.547-1.115 0.82-1.652 0.82-0.344 0-0.637-0.112-0.881-0.339-0.244-0.225-0.365-0.489-0.365-0.79 0-0.265 0.099-0.519 0.301-0.76 0.201-0.246 0.625-0.535 1.267-0.866 0.785-0.406 1.319-0.798 1.6-1.174 0.277-0.381 0.414-0.81 0.414-1.287 0-0.673-0.236-1.242-0.707-1.709-0.473-0.466-1.065-0.7-1.772-0.7-0.472 0-0.923 0.104-1.353 0.309-0.43 0.206-0.785 0.489-1.067 0.85l0.663 0.753c0.537-0.607 1.109-0.911 1.712-0.911 0.422 0 0.782 0.136 1.079 0.407 0.296 0.271 0.445 0.589 0.445 0.955 0 0.302-0.098 0.571-0.295 0.806-0.195 0.232-0.639 0.523-1.326 0.873-0.74 0.382-1.244 0.758-1.51 1.13-0.266 0.371-0.4 0.795-0.4 1.271 0 0.623 0.213 1.14 0.638 1.551 0.424 0.411 0.961 0.617 1.61 0.617 0.754 0 1.511-0.369 2.277-1.106" fill="#fff"/></g><g id="g132" transform="translate(266.69 14.348)"><path id="path134" d="m0 0h1.055v-4.63c0.425 0.563 0.894 0.983 1.406 1.261 0.512 0.279 1.066 0.418 1.664 0.418 0.611 0 1.156-0.155 1.629-0.467 0.475-0.311 0.824-0.728 1.051-1.253 0.226-0.524 0.338-1.347 0.338-2.466v-4.215h-1.053v3.907c0 0.943-0.037 1.573-0.113 1.889-0.131 0.542-0.368 0.951-0.711 1.224-0.344 0.273-0.795 0.41-1.352 0.41-0.637 0-1.209-0.211-1.713-0.633-0.504-0.421-0.836-0.943-0.996-1.565-0.101-0.401-0.15-1.145-0.15-2.229v-3.003h-1.055v11.352z" fill="#fff"/></g><g id="g136" transform="translate(289.76 10.365)"><path id="path138" d="m0 0c-0.877 0-1.629-0.323-2.26-0.971-0.629-0.647-0.943-1.43-0.943-2.348 0-0.593 0.142-1.145 0.43-1.657 0.287-0.511 0.675-0.907 1.164-1.185 0.488-0.278 1.025-0.418 1.609-0.418s1.119 0.14 1.609 0.418c0.489 0.278 0.875 0.674 1.162 1.185 0.288 0.512 0.432 1.064 0.432 1.657 0 0.918-0.316 1.701-0.949 2.348-0.631 0.648-1.383 0.971-2.254 0.971m0.004 1.031c1.262 0 2.307-0.457 3.137-1.37 0.754-0.833 1.13-1.819 1.13-2.958 0-1.144-0.398-2.144-1.195-3-0.797-0.855-1.82-1.283-3.072-1.283-1.258 0-2.283 0.428-3.08 1.283-0.797 0.856-1.195 1.856-1.195 3 0 1.134 0.376 2.117 1.13 2.951 0.828 0.918 1.877 1.377 3.145 1.377" fill="#fff"/></g><g id="g140" transform="translate(309.22 10.381)"><path id="path142" d="m0 0c-0.912 0-1.678-0.318-2.303-0.955-0.623-0.637-0.933-1.429-0.933-2.376 0-0.622 0.138-1.181 0.416-1.677 0.277-0.496 0.675-0.889 1.193-1.18 0.52-0.291 1.066-0.436 1.643-0.436 0.564 0 1.097 0.146 1.595 0.439s0.895 0.704 1.19 1.23 0.443 1.077 0.443 1.654c0 0.581-0.146 1.133-0.439 1.654s-0.688 0.926-1.184 1.214c-0.494 0.288-1.035 0.433-1.621 0.433m-4.215 0.805h1.053v-1.505c0.416 0.571 0.894 1.001 1.437 1.287 0.541 0.286 1.145 0.429 1.811 0.429 1.164 0 2.158-0.419 2.986-1.257 0.826-0.838 1.24-1.847 1.24-3.027 0-1.204-0.41-2.226-1.228-3.067-0.82-0.841-1.809-1.261-2.967-1.261-0.652 0-1.252 0.136-1.797 0.407-0.547 0.271-1.041 0.674-1.482 1.211v-4.403h-1.053v11.186z" fill="#fff"/></g></g></g></g></svg>
